PathFileType	4	(x/y/z)	S05_SL_Cal_T01
DataRate	CameraRate	NumFrames	NumMarkers	Units	OrigDataRate	OrigDataStartFrame	OrigNumFrames
240	240	5	50	mm	240	1501	2400
Frame#	Time	Sternum			R.Acromium			L.Acromium			Top.Head			R.ASIS			L.ASIS			R.PSIS			L.PSIS			R.Great.Tro			L.Great.Tro			R.Iliac.Crest			L.Iliac.Crest			V.Sacral			R.Thigh.Upper.Post			R.Thigh.Lower.Ant			R.Thigh.Lower.Post			R.Thigh.Upper.Ant			R.Knee.Lat			R.Knee.Med			R.Shank.Upper.Post			R.Shank.Lower.Ant			R.Shank.Lower.Post			R.Shank.Upper.Ant			R.Ankle.Lat			R.Ankle.Med			R.Heel.Upper			R.Heel.Med			R.Heel.Lat			R.Toe.Lat			R.Toe.Med			R.Toe.Tip			L.Thigh.Upper.Post			L.Thigh.Lower.Ant			L.Thigh.Lower.Post			L.Thigh.Upper.Ant			L.Knee.Lat			L.Shank.Upper.Post			L.Shank.Lower.Ant			L.Shank.Lower.Post			L.Shank.Upper.Ant			L.Ankle.Lat			L.Ankle.Med			L.Heel.Upper			L.Heel.Med			L.Heel.Lat			L.Toe.Lat			L.Toe.Med			L.Toe.Tip			Cervical.Spine			Back			
		X1	Y1	Z1	X2	Y2	Z2	X3	Y3	Z3	X4	Y4	Z4	X5	Y5	Z5	X6	Y6	Z6	X7	Y7	Z7	X8	Y8	Z8	X9	Y9	Z9	X10	Y10	Z10	X11	Y11	Z11	X12	Y12	Z12	X13	Y13	Z13	X14	Y14	Z14	X15	Y15	Z15	X16	Y16	Z16	X17	Y17	Z17	X18	Y18	Z18	X19	Y19	Z19	X20	Y20	Z20	X21	Y21	Z21	X22	Y22	Z22	X23	Y23	Z23	X24	Y24	Z24	X25	Y25	Z25	X26	Y26	Z26	X27	Y27	Z27	X28	Y28	Z28	X29	Y29	Z29	X30	Y30	Z30	X31	Y31	Z31	X32	Y32	Z32	X33	Y33	Z33	X34	Y34	Z34	X35	Y35	Z35	X36	Y36	Z36	X37	Y37	Z37	X38	Y38	Z38	X39	Y39	Z39	X40	Y40	Z40	X41	Y41	Z41	X42	Y42	Z42	X43	Y43	Z43	X44	Y44	Z44	X45	Y45	Z45	X46	Y46	Z46	X47	Y47	Z47	X48	Y48	Z48	X49	Y49	Z49	X50	Y50	Z50	

1501	6.25	540.07	1284.9	338.25	425.78	1531.5	498.2	413.25	1545.2	158.94	410.86	1850.8	339.04	488.68	1016.6	465.62	502	1024	214.66	292.55	1050.4	371.13	298.66	1053.1	279.98	397.75	941.89	521.76	406.09	950.77	137.46	402.44	1106.5	500.59	414.95	1106.6	166.45	280.41	1014.7	335.96	426.97	718.97	529.12	469.19	638.17	482.07	402.83	632.78	512.67	489.48	724.32	498.98	386.47	537.7	494.51	381.06	513.31	365.06	298.28	303.17	511.22	360.43	236.59	512.43	295.24	226.48	500.15	362.82	314.43	520.46	347.2	125.75	504.78	349.01	140.27	417.19	272.59	75.273	456.6	280.72	41.819	429.63	283.24	48.903	494.55	452.13	37.32	534.33	478.77	40.377	412.35	546.12	56.925	452.73	385.88	716.27	125.88	456.13	633.36	146.96	385.24	620.95	137.6	463.82	723.88	135.12	387	528.54	139.66	315.41	333.72	121.14	380.72	273.41	123.49	310.92	261	134.33	381.06	344.27	116.57	340.27	117.16	133.3	368.42	128.25	221.42	278.52	68.796	178.53	289.14	44.063	210.96	283.53	41.631	149.89	468.2	39.539	103.84	486.14	50.369	224.01	553.1	58.934	171.73	366.08	1580.1	335.84	277.95	1296	332.31
1502	6.2542	540.07	1284.9	338.25	425.76	1531.5	498.19	413.27	1545.2	158.92	410.84	1850.8	339.02	488.68	1016.6	465.62	502	1024	214.66	292.56	1050.4	371.13	298.66	1053.1	279.98	397.75	941.89	521.75	406.08	950.77	137.46	402.45	1106.5	500.6	414.96	1106.6	166.45	280.41	1014.7	335.96	426.97	718.96	529.11	469.19	638.17	482.06	402.83	632.78	512.66	489.49	724.32	498.98	386.47	537.7	494.51	381.06	513.31	365.05	298.28	303.17	511.22	360.43	236.58	512.43	295.24	226.48	500.15	362.82	314.42	520.46	347.2	125.75	504.77	349.01	140.27	417.18	272.59	75.272	456.61	280.72	41.818	429.63	283.24	48.902	494.55	452.13	37.32	534.33	478.77	40.377	412.35	546.12	56.927	452.73	385.88	716.27	125.88	456.13	633.36	146.95	385.24	620.95	137.6	463.82	723.88	135.12	387	528.54	139.65	315.4	333.72	121.14	380.72	273.41	123.49	310.92	261	134.33	381.06	344.27	116.57	340.27	117.16	133.3	368.42	128.25	221.42	278.52	68.795	178.53	289.14	44.062	210.96	283.53	41.63	149.89	468.2	39.538	103.84	486.14	50.369	224.01	553.1	58.935	171.73	366.06	1580.1	335.83	277.94	1295.9	332.3
1503	6.2583	540.06	1284.9	338.24	425.74	1531.5	498.18	413.28	1545.2	158.91	410.81	1850.8	339	488.68	1016.6	465.61	502	1024	214.66	292.56	1050.4	371.13	298.66	1053.1	279.98	397.76	941.89	521.75	406.08	950.77	137.46	402.45	1106.5	500.61	414.97	1106.6	166.45	280.42	1014.7	335.96	426.97	718.96	529.11	469.2	638.17	482.06	402.83	632.78	512.66	489.49	724.32	498.97	386.47	537.7	494.51	381.07	513.31	365.05	298.28	303.17	511.23	360.43	236.58	512.43	295.24	226.48	500.15	362.82	314.42	520.46	347.2	125.75	504.77	349.01	140.27	417.18	272.59	75.271	456.61	280.72	41.818	429.63	283.24	48.902	494.55	452.13	37.32	534.33	478.77	40.377	412.35	546.12	56.929	452.73	385.87	716.27	125.88	456.13	633.36	146.95	385.23	620.95	137.59	463.82	723.88	135.12	387	528.54	139.65	315.4	333.72	121.14	380.71	273.4	123.49	310.92	261	134.33	381.05	344.27	116.57	340.27	117.16	133.3	368.42	128.25	221.42	278.52	68.795	178.53	289.14	44.061	210.96	283.53	41.629	149.89	468.2	39.538	103.84	486.14	50.37	224.01	553.1	58.937	171.73	366.04	1580.1	335.81	277.93	1295.9	332.3
1504	6.2625	540.05	1284.9	338.24	425.72	1531.5	498.17	413.3	1545.2	158.89	410.79	1850.8	338.98	488.69	1016.6	465.61	502	1024	214.65	292.56	1050.4	371.12	298.66	1053.1	279.98	397.76	941.89	521.75	406.08	950.77	137.46	402.46	1106.5	500.61	414.98	1106.6	166.46	280.42	1014.7	335.96	426.97	718.96	529.11	469.2	638.17	482.05	402.83	632.78	512.65	489.49	724.32	498.97	386.48	537.7	494.5	381.07	513.31	365.05	298.28	303.17	511.23	360.43	236.58	512.42	295.23	226.48	500.15	362.82	314.42	520.45	347.19	125.74	504.77	349.01	140.27	417.18	272.59	75.27	456.61	280.72	41.817	429.63	283.24	48.901	494.56	452.13	37.321	534.33	478.77	40.378	412.35	546.12	56.931	452.73	385.87	716.27	125.87	456.13	633.36	146.95	385.23	620.95	137.59	463.82	723.88	135.11	387	528.54	139.65	315.4	333.72	121.14	380.71	273.4	123.49	310.92	261	134.33	381.05	344.27	116.57	340.27	117.16	133.3	368.42	128.26	221.42	278.52	68.794	178.53	289.14	44.06	210.96	283.53	41.628	149.89	468.2	39.538	103.84	486.14	50.37	224.01	553.1	58.938	171.74	366.03	1580.1	335.79	277.92	1295.9	332.29
1505	6.2667	540.05	1284.9	338.23	425.7	1531.5	498.16	413.31	1545.2	158.87	410.77	1850.8	338.95	488.69	1016.6	465.61	502	1024	214.65	292.56	1050.4	371.12	298.66	1053.1	279.98	397.77	941.89	521.74	406.08	950.77	137.45	402.47	1106.5	500.61	414.98	1106.6	166.46	280.42	1014.7	335.95	426.97	718.96	529.1	469.2	638.17	482.05	402.84	632.78	512.65	489.49	724.32	498.96	386.48	537.7	494.5	381.07	513.31	365.05	298.28	303.16	511.23	360.43	236.58	512.42	295.23	226.48	500.15	362.82	314.41	520.45	347.19	125.74	504.77	349.01	140.27	417.18	272.59	75.269	456.61	280.72	41.817	429.63	283.24	48.9	494.56	452.13	37.321	534.33	478.76	40.378	412.35	546.12	56.934	452.73	385.87	716.27	125.87	456.13	633.36	146.94	385.23	620.94	137.59	463.82	723.88	135.11	387	528.54	139.65	315.4	333.72	121.14	380.71	273.4	123.49	310.92	261	134.33	381.05	344.27	116.57	340.27	117.16	133.3	368.42	128.26	221.42	278.51	68.794	178.53	289.14	44.059	210.96	283.53	41.628	149.89	468.2	39.538	103.84	486.14	50.37	224.01	553.1	58.939	171.74	366.01	1580.1	335.78	277.91	1295.9	332.29
